# xmcd
#
# Track frame offsets:
# 150
# 18675
# 36632
# 54581
# 71248
# 92184
# 109815
# 132666
# 148859
# 169880
# 191316
# 210783
# 235332
# 261382
#
# Disc length: 3741 seconds
#
#
# Revision: 13
# Processed by: cddbd v1.5.1PL0 Copyright (c) Steve Scherf et al.
# Submitted via: FreeRIP 2.91 
#
DISCID=dc0e9b0e
DTITLE=Evanescence - Anywhere But Home
DYEAR=2004
DGENRE=Rock
TTITLE0=Haunted (Live)
TTITLE1=Going Under (Live)
TTITLE2=Taking Over Me (Live)
TTITLE3=Everybody's Fool (Live)
TTITLE4=Thoughtless (Live)
TTITLE5=My Last Breath (Live)
TTITLE6=Farther Away (Live)
TTITLE7=Breathe No More (Live)
TTITLE8=My Immortal (Live)
TTITLE9=Bring Me to Life (Live)
TTITLE10=Tourniquet  (Live)
TTITLE11=Imaginary (Live)
TTITLE12=Whisper (Live)
TTITLE13=Missing (Live)
EXTD='Evanescence' Live In Paris YEAR: 2004
EXTT0=
EXTT1=
EXTT2=
EXTT3=
EXTT4=
EXTT5=
EXTT6=
EXTT7=
EXTT8=
EXTT9=
EXTT10=
EXTT11=
EXTT12=
EXTT13=
PLAYORDER=
